<svg width="47" height="58" viewBox="0 0 47 58" fill="none" xmlns="http://www.w3.org/2000/svg">
<path d="M46.0191 18.4211L24.8287 1.17042C24.1054 0.626916 23.3335 0.62194 22.6036 1.17042L1.41324 18.4211C0.869899 18.8634 0.533569 19.6534 0.533569 20.4431V37.6937C0.533569 38.4836 0.869899 39.2735 1.41333 39.7158L22.6037 56.969C23.327 57.5125 24.0989 57.5175 24.8288 56.969L46.0192 39.7158C46.5625 39.2736 46.8989 38.4836 46.8989 37.6937V20.4431C46.8988 19.6534 46.5625 18.8634 46.0191 18.4211ZM25.7085 7.74195L41.3102 20.4431L34.3502 26.1302L25.7085 19.0845V7.74195ZM21.7239 7.74195V19.0845L13.0822 26.1302L6.12221 20.4431L21.7239 7.74195ZM4.51808 24.9928L9.51168 29.0685L4.51808 33.1442V24.9928ZM21.7239 50.395L6.12221 37.6938L13.0822 32.0067L21.7239 39.0524V50.395ZM23.7162 34.8187L16.6785 29.0685L23.7162 23.3182L30.7538 29.0685L23.7162 34.8187ZM25.7085 50.395V39.0524L34.3502 32.0067L41.3102 37.6938L25.7085 50.395ZM42.9143 33.1442L37.9207 29.0685L42.9143 24.9928V33.1442Z" fill="#9C4E35"/>
</svg>
